<?xml version="1.0" encoding="utf-8"?><svg xmlns="http://www.w3.org/2000/svg" viewBox="0 0 512 512"><rect width="100%" height="100%" fill="white"/><path d="M376.1 142.6H135.9c-14.7 0-26.7 11.9-26.7 26.7v173.4c0 14.7 11.9 26.7 26.7 26.7H376c14.7 0 26.7-11.9 26.7-26.7V169.3c0-14.7-11.9-26.7-26.6-26.7m0 200.1H256V169.3h120.1"/><path d="M338.1 278H294v-44.1h44.1m17.6 17.7v-8.8h-8.8V234c0-4.9-4-8.8-8.8-8.8h-8.8v-8.8h-8.8v8.8h-8.8v-8.8h-8.8v8.8H294c-4.9 0-8.8 3.9-8.8 8.8v8.8h-8.8v8.8h8.8v8.8h-8.8v8.8h8.8v8.8c0 4.9 3.9 8.8 8.8 8.8h8.8v8.8h8.8v-8.8h8.8v8.8h8.8v-8.8h8.8c4.9 0 8.8-3.9 8.8-8.8v-8.8h8.8v-8.8h-8.8v-8.8m-26.4 8.8h-8.8v-8.8h8.8m8.9-8.8h-26.5v26.5h26.5v-26.5z"/></svg>
